<svg width="680" height="184" viewBox="0 0 680 184" fill="none" xmlns="http://www.w3.org/2000/svg">
<path d="M0.110352 0.509766V183.49H183.09V0.509766H0.110352ZM125.56 130.77L92.5503 163.78L58.2504 129.48C36.7803 108.01 36.7803 73.2097 58.2504 51.7397L89.7604 20.2298L104.67 35.1398L68.5803 71.2298C58.3103 81.4998 58.3103 98.1397 68.5803 108.41L95.1203 134.95L117.19 112.88C125.75 104.31 125.75 90.4297 117.19 81.8597L92.9303 106.12L78.4204 91.6097L119.78 50.2498L125.55 56.0197C146.19 76.6597 146.19 110.13 125.55 130.78L125.56 130.77Z" fill="#EE1D46"/>
<path d="M234.39 149.89H239.44V160.12C236.62 163.23 232.58 164.79 227.33 164.79C222.91 164.79 219.21 163.33 216.22 160.42C213.24 157.51 211.75 153.83 211.75 149.38C211.75 144.93 213.27 141.22 216.31 138.25C219.35 135.28 223.02 133.8 227.33 133.8C231.64 133.8 235.22 135.06 238.07 137.57L235.37 141.42C234.2 140.42 233.02 139.73 231.84 139.34C230.66 138.95 229.28 138.76 227.71 138.76C224.69 138.76 222.15 139.74 220.09 141.69C218.04 143.64 217.01 146.21 217.01 149.39C217.01 152.57 218.01 155.12 220.01 157.05C222.01 158.98 224.43 159.94 227.26 159.94C230.09 159.94 232.47 159.33 234.39 158.1V149.88V149.89Z" fill="white"/>
<path d="M250.01 157.64L247.01 164.45H241.62L254.8 134.53H260.19L273.37 164.45H267.98L264.98 157.64H250H250.01ZM262.94 152.97L257.5 140.64L252.06 152.97H262.93H262.94Z" fill="white"/>
<path d="M286.48 139.15V164.44H281.43V139.15H272.36V134.53H295.56V139.15H286.49H286.48Z" fill="white"/>
<path d="M322.04 134.53V139.28H306.08V147.2H320.42V151.69H306.08V159.69H322.56V164.44H301.03V134.52H322.05L322.04 134.53Z" fill="white"/>
<path d="M338.35 156.06L345.03 134.53H349.57L356.25 156.06L363.78 134.53H369.22L358.78 164.45H353.77L347.48 143.95H347.14L340.85 164.45H335.84L325.4 134.53H330.84L338.37 156.06H338.35Z" fill="white"/>
<path d="M376.7 157.64L373.7 164.45H368.31L381.49 134.53H386.88L400.06 164.45H394.67L391.67 157.64H376.69H376.7ZM389.62 152.97L384.18 140.64L378.74 152.97H389.61H389.62Z" fill="white"/>
<path d="M413.81 164.44H408.67V152.63L397.54 134.53H403.06L411.23 148.14L419.4 134.53H424.92L413.79 152.63V164.44H413.81Z" fill="white"/>
<path d="M209.52 67.8398C209.52 48.1398 224.86 29.0898 255.93 29.0898C269.67 29.0898 281.27 32.8998 288.6 38.9998L279.53 45.9698C275 39.5498 266.86 34.9799 255.93 34.9799C234.33 34.9799 226.33 51.6299 226.33 67.8499C226.33 90.3799 239.53 100.72 255 100.72C261.93 100.72 269.14 98.5399 275.4 94.5199V74.9298H248.6L250.33 68.2899H289.67V96.2599C281.54 101.27 270.6 106.6 254.33 106.6C223.26 106.6 209.52 87.5499 209.52 67.8499V67.8398Z" fill="white"/>
<path d="M364.21 95.8102L362.61 105.93H307C308.47 80.2402 308.47 54.7702 307 29.7402H360.34L361.54 39.3203C349.81 37.1403 337 36.4902 323.27 36.4902C322.87 43.1302 322.74 52.6002 322.6 62.5002H351.67L350.07 69.1403H322.73C322.73 80.5703 323 91.7802 323.26 99.1802C337.66 99.1802 352.6 98.7402 364.2 95.8102H364.21Z" fill="white"/>
<path d="M378.75 37.0302L372.88 29.7402H394.35L440.36 87.9702C440.89 68.9202 440.49 49.1102 439.29 29.7402H451.69C450.62 54.8802 450.49 80.3502 451.69 105.93H437.42C422.75 86.4502 406.88 65.9802 390.35 47.5902C389.95 66.2002 390.62 87.1002 391.55 105.93H378.35C379.82 83.1802 379.95 60.2102 378.75 37.0302Z" fill="white"/>
<path d="M526.24 95.8102L524.64 105.93H469.03C470.5 80.2402 470.5 54.7702 469.03 29.7402H522.37L523.57 39.3203C511.84 37.1403 499.03 36.4902 485.3 36.4902C484.9 43.1302 484.77 52.6002 484.63 62.5002H513.7L512.1 69.1403H484.76C484.76 80.5703 485.03 91.7802 485.29 99.1802C499.69 99.1802 514.63 98.7402 526.23 95.8102H526.24Z" fill="white"/>
<path d="M531.58 29.7402H549.18C557.31 48.1402 565.05 68.3802 573.85 87.1002H574.25C582.38 68.1602 591.99 44.9802 596.25 29.7402H612.39C602.12 44.8702 584.52 85.2502 577.58 105.93H565.04C557.97 86.9902 541.97 49.3302 531.57 29.7402H531.58Z" fill="white"/>
<path d="M679.6 95.8102L678 105.93H622.39C623.86 80.2402 623.86 54.7702 622.39 29.7402H675.73L676.93 39.3203C665.2 37.1403 652.39 36.4902 638.66 36.4902C638.26 43.1302 638.13 52.6002 637.99 62.5002H667.06L665.46 69.1403H638.12C638.12 80.5703 638.39 91.7802 638.65 99.1802C653.05 99.1802 667.99 98.7402 679.59 95.8102H679.6Z" fill="white"/>
</svg>
