<svg width="113" height="162" viewBox="0 0 113 162" fill="none" xmlns="http://www.w3.org/2000/svg">
<g clip-path="url(#clip0_92_106965)">
<path d="M15.6802 4.22818C19.7654 11.1686 21.8716 19.0954 21.7702 27.1482C21.7702 29.7682 21.7702 32.5482 19.4302 34.6082C18.9869 35.0504 18.6789 35.6099 18.5425 36.221C18.4061 36.8321 18.447 37.4695 18.6602 38.0582C18.9717 39.3276 19.7144 40.4495 20.7613 41.232C21.8083 42.0144 23.0946 42.409 24.4002 42.3482C25.772 42.3835 27.1068 41.9011 28.139 40.9968C29.1711 40.0925 29.8249 38.8327 29.9702 37.4682C30.1168 35.1913 30.0229 32.9054 29.6902 30.6482C29.1402 26.6482 28.3102 22.6482 27.6902 18.6482C26.6702 11.3482 31.1302 5.69818 38.4902 5.05818C41.3886 4.73226 44.3104 4.66867 47.2202 4.86818C49.3515 5.07039 51.4464 5.55462 53.4502 6.30818C55.6483 7.19928 57.7141 8.38696 59.5902 9.83818C61.1917 11.0162 62.6965 12.3204 64.0902 13.7382C68.4702 18.4782 69.3202 25.3082 69.5302 28.0682C71.8533 27.4555 74.2318 27.077 76.6302 26.9382C77.5702 26.8782 78.4702 26.8582 79.3202 26.8782C79.3202 26.5582 79.3202 26.0882 79.3202 25.5182C78.9102 16.4482 71.7702 10.0582 69.9702 8.41818C65.1222 4.1811 59.1459 1.44657 52.7702 0.548182C49.9107 0.0943403 47.011 -0.0531609 44.1202 0.108182C40.3902 0.188182 28.9402 0.108182 13.2302 0.108182C13.2302 0.508182 13.2302 0.998181 13.4102 1.28818C14.1202 2.29818 15.0502 3.17818 15.6802 4.22818Z" fill="#FBFDFF" fill-opacity="0.1"/>
<path d="M92.5604 23.2282C93.4736 23.1026 94.4036 23.2414 95.2404 23.6282C97.0404 24.6282 97.4804 27.9682 96.2404 30.1582C95.1804 32.0982 93.6104 32.5582 91.2404 31.4782C87.4562 29.7095 83.3372 28.7718 79.1604 28.7282C68.9704 28.7282 59.9004 31.5482 52.6504 39.1182C40.1904 52.1182 43.9504 70.5782 56.4104 78.7582C56.9804 79.1382 57.4904 79.6082 58.2004 80.1682C57.3504 80.7382 56.7204 81.0882 56.2004 81.5382C51.7704 85.2182 48.6904 91.2282 55.4404 97.5382C55.8204 97.8982 56.2204 98.2382 56.6304 98.5382C59.5446 100.731 62.7837 102.455 66.2304 103.648C66.9504 103.908 67.6304 104.258 68.6604 104.718C61.3437 105.791 54.4796 108.911 48.8604 113.718C45.4647 116.684 42.6179 120.225 40.4504 124.178H41.8204C44.6604 124.178 47.4704 124.178 50.2804 124.178C50.3604 124.018 50.4904 123.778 50.6604 123.498C52.2737 120.745 54.2969 118.253 56.6604 116.108C61.4104 111.798 67.3004 109.188 74.0204 107.808C74.917 107.553 75.8572 107.488 76.7804 107.618C82.3904 108.928 87.7804 110.798 92.3204 114.508C95.7369 117.147 98.0674 120.947 98.8704 125.188C100.52 134.248 97.0904 145.598 87.3504 151.628C80.6356 155.8 72.5403 157.138 64.8404 155.348C53.4704 153.008 47.4904 145.078 48.0404 134.348C48.0321 133.565 47.9686 132.783 47.8504 132.008H38.0504C37.9204 133.138 37.7204 134.148 37.6804 135.158C37.2104 146.738 43.9304 156.048 55.3904 159.308C66.3829 162.559 78.1708 161.819 88.6704 157.218C97.5253 153.571 104.778 146.869 109.11 138.328C111.407 133.985 112.592 129.141 112.56 124.228C112.62 121.102 111.937 118.006 110.567 115.195C109.197 112.384 107.18 109.938 104.68 108.058C100.09 104.625 94.9784 101.951 89.5403 100.138C84.0603 98.1382 78.4703 96.4982 73.0403 94.4082C69.6699 93.0556 66.4014 91.4614 63.2604 89.6382C61.1804 88.4582 60.8104 86.9082 61.5504 85.1882C62.4604 83.0682 63.9104 82.3382 66.2604 82.7982C66.8204 82.9082 67.3903 82.9482 68.1103 83.0482V76.0482L67.1103 75.1082C58.9604 67.4682 55.2904 58.1082 57.0104 47.0182C57.4726 43.811 58.8736 40.8122 61.0368 38.3995C63.1999 35.9868 66.0286 34.2681 69.1666 33.4598C72.3046 32.6515 75.6116 32.7898 78.6712 33.8572C81.7308 34.9246 84.4061 36.8734 86.3603 39.4582C91.5708 45.7992 94.2148 53.8632 93.7704 62.0582C93.4804 69.6682 90.2703 75.7082 82.5804 78.4782C82.2233 78.6719 81.8881 78.9032 81.5804 79.1682C81.6404 79.9982 81.7004 80.9582 81.7704 82.1682C86.346 81.0678 90.6085 78.9331 94.2304 75.9282C101.88 69.5282 105.92 61.4382 105.11 51.2882C104.749 47.5438 103.512 43.9368 101.5 40.7582C100.455 39.1895 99.8907 37.349 99.8783 35.4637C99.8658 33.5784 100.405 31.7306 101.43 30.1482C102.087 29.0871 102.582 27.9346 102.9 26.7282C104.07 21.7982 103.61 17.1882 99.6304 13.5182C98.3537 12.3553 96.7584 11.6006 95.0495 11.3511C93.3407 11.1016 91.5962 11.3688 90.0403 12.1182C88.7157 12.7613 87.6506 13.8377 87.0213 15.1689C86.392 16.5002 86.2365 18.0065 86.5803 19.4382C87.2103 22.0582 89.2804 23.5482 92.5604 23.2282Z" fill="#FBFDFF" fill-opacity="0.1"/>
<path d="M5.25026 145.059C6.58701 145.377 7.99535 145.165 9.17819 144.465C10.361 143.765 11.2259 142.634 11.5903 141.309C13.2603 136.609 16.6903 133.859 21.1403 132.119C24.6671 130.857 28.3956 130.254 32.1403 130.339C37.8603 130.279 43.5803 130.409 49.3003 130.339C57.8303 130.189 65.7603 128.129 72.3003 122.339C75.938 119.145 78.4022 114.825 79.3003 110.069C75.3003 108.259 71.9103 109.949 68.5203 110.999C63.9603 121.379 56.0203 126.059 44.7703 125.829C32.9203 125.609 21.0603 125.759 9.21026 125.829C4.03026 125.829 0.910264 128.979 0.770264 134.179C0.770264 135.849 0.770264 137.509 0.770264 139.179C0.880264 142.449 2.49026 144.549 5.25026 145.059Z" fill="#FBFDFF" fill-opacity="0.1"/>
<path d="M69.7703 34.898V91.798L79.8903 95.408V35.928C76.7706 34.3105 73.1519 33.9422 69.7703 34.898Z" fill="#FBFDFF" fill-opacity="0.1"/>
</g>
<defs>
<clipPath id="clip0_92_106965">
<rect width="111.79" height="161.32" fill="white" transform="translate(0.770264 0.0581055)"/>
</clipPath>
</defs>
</svg>
