<svg width="22" height="31" viewBox="0 0 22 31" fill="none" xmlns="http://www.w3.org/2000/svg">
<path d="M18.3033 1.13823C17.5331 2.44663 17.1361 3.94098 17.1552 5.45909C17.1552 5.95301 17.1552 6.47709 17.5963 6.86544C17.6799 6.9488 17.738 7.05427 17.7637 7.16948C17.7894 7.28469 17.7817 7.40484 17.7415 7.51583C17.6828 7.75514 17.5428 7.96663 17.3454 8.11414C17.148 8.26166 16.9055 8.33604 16.6594 8.32457C16.4008 8.33124 16.1491 8.24028 15.9546 8.06981C15.76 7.89933 15.6367 7.66184 15.6093 7.4046C15.5817 6.97537 15.5994 6.54442 15.6621 6.1189C15.7658 5.36483 15.9223 4.61075 16.0392 3.85668C16.2314 2.48049 15.3906 1.41536 14.0031 1.2947C13.4568 1.23326 12.9059 1.22127 12.3574 1.25889C11.9556 1.29701 11.5607 1.38829 11.1829 1.53035C10.7685 1.69834 10.3791 1.92224 10.0254 2.19582C9.72348 2.41791 9.4398 2.66376 9.17706 2.93105C8.35135 3.82463 8.19111 5.11221 8.15152 5.63252C7.71358 5.51703 7.26519 5.44567 6.81304 5.4195C6.63583 5.40819 6.46616 5.40442 6.30592 5.40819C6.30592 5.34786 6.30592 5.25926 6.30592 5.1518C6.38321 3.44193 7.72924 2.2373 8.06857 1.92813C8.98251 1.12936 10.1092 0.613847 11.3111 0.444483C11.8502 0.358926 12.3968 0.331119 12.9418 0.361535C13.645 0.376617 15.8035 0.361535 18.7651 0.361535C18.7651 0.436943 18.7651 0.529317 18.7312 0.583987C18.5974 0.774391 18.422 0.940288 18.3033 1.13823Z" fill="#E1A827"/>
<path d="M3.8089 4.71908C3.63675 4.69539 3.46141 4.72156 3.30367 4.79449C2.96434 4.98301 2.88139 5.61266 3.11515 6.02552C3.31498 6.39125 3.61096 6.47796 4.05775 6.27436C4.77112 5.94093 5.54764 5.76416 6.33506 5.75594C8.25606 5.75594 9.96593 6.28756 11.3327 7.71465C13.6816 10.1654 12.9728 13.6455 10.6239 15.1875C10.5164 15.2592 10.4203 15.3478 10.2864 15.4534C10.4467 15.5608 10.5654 15.6268 10.6634 15.7116C11.4986 16.4054 12.0792 17.5384 10.8067 18.7279C10.7351 18.7958 10.6597 18.8599 10.5824 18.9164C10.033 19.3299 9.42237 19.6549 8.7726 19.8798C8.63687 19.9288 8.50868 19.9948 8.3145 20.0815C9.69383 20.2837 10.9878 20.8719 12.0472 21.7782C12.6873 22.3373 13.224 23.0048 13.6326 23.7501H13.3744C12.839 23.7501 12.3092 23.7501 11.7795 23.7501C11.7644 23.7199 11.7399 23.6747 11.7078 23.6219C11.4037 23.1028 11.0223 22.633 10.5767 22.2287C9.68127 21.4162 8.57089 20.9242 7.30404 20.664C7.13501 20.6158 6.95776 20.6036 6.78373 20.6282C5.72614 20.8752 4.71002 21.2277 3.85415 21.9271C3.21005 22.4245 2.77072 23.1409 2.61935 23.9405C2.30829 25.6485 2.95491 27.7881 4.79109 28.9249C6.05694 29.7114 7.58307 29.9636 9.03465 29.6262C11.1781 29.1851 12.3054 27.6901 12.2018 25.6673C12.2033 25.5196 12.2153 25.3722 12.2376 25.2262H14.0851C14.1096 25.4392 14.1473 25.6296 14.1548 25.82C14.2434 28.0031 12.9766 29.7582 10.8161 30.3727C8.74384 30.9856 6.5216 30.846 4.54224 29.9787C2.87292 29.2912 1.50566 28.0276 0.688914 26.4176C0.256039 25.5988 0.0325937 24.6856 0.0385237 23.7595C0.0272665 23.1701 0.156057 22.5864 0.414309 22.0565C0.67256 21.5265 1.0529 21.0655 1.52405 20.7111C2.3894 20.0639 3.35306 19.5598 4.37823 19.2181C5.41131 18.841 6.46513 18.5319 7.48879 18.1379C8.12419 17.8829 8.74037 17.5823 9.33251 17.2386C9.72462 17.0162 9.79438 16.724 9.65487 16.3997C9.48332 16.0001 9.20997 15.8624 8.76695 15.9492C8.66138 15.9699 8.55392 15.9774 8.41819 15.9963V14.6767L8.60671 14.4994C10.1431 13.0592 10.835 11.2946 10.5107 9.20395C10.4236 8.59931 10.1595 8.03398 9.7517 7.57915C9.3439 7.12431 8.81064 6.8003 8.21906 6.64792C7.62749 6.49555 7.00406 6.52161 6.42727 6.72284C5.85048 6.92407 5.34613 7.29146 4.97772 7.77875C3.99545 8.97414 3.49701 10.4943 3.58079 12.0393C3.63546 13.4739 4.24061 14.6126 5.69032 15.1348C5.75762 15.1713 5.82082 15.2149 5.87884 15.2648C5.86753 15.4213 5.85622 15.6023 5.84302 15.8304C4.98043 15.6229 4.17687 15.2205 3.49407 14.654C2.05191 13.4475 1.29029 11.9224 1.44299 10.0089C1.51113 9.30303 1.74425 8.62304 2.12354 8.02382C2.32069 7.72808 2.42699 7.38112 2.42934 7.0257C2.43168 6.67028 2.32997 6.32195 2.13674 6.02363C2.01303 5.82359 1.91964 5.60632 1.85962 5.3789C1.63905 4.4495 1.72577 3.58043 2.47607 2.88856C2.71675 2.66932 3.01749 2.52704 3.33964 2.48002C3.6618 2.43299 3.99066 2.48335 4.28397 2.62464C4.53369 2.74587 4.73449 2.94878 4.85312 3.19975C4.97174 3.45072 5.00107 3.73468 4.93624 4.0046C4.81748 4.49852 4.42724 4.77941 3.8089 4.71908Z" fill="#E1A827"/>
<path d="M20.2687 27.6881C20.0167 27.7482 19.7512 27.7081 19.5282 27.5762C19.3052 27.4443 19.1422 27.231 19.0735 26.9812C18.7587 26.0951 18.1121 25.5767 17.2732 25.2487C16.6083 25.0109 15.9054 24.8971 15.1994 24.9131C14.1211 24.9018 13.0428 24.9263 11.9645 24.9131C10.3564 24.8849 8.86144 24.4965 7.62852 23.405C6.94274 22.8029 6.47819 21.9886 6.30889 21.0919C7.06297 20.7506 7.70205 21.0692 8.34113 21.2672C9.20077 23.224 10.6976 24.1063 12.8184 24.0629C15.0524 24.0214 17.2882 24.0497 19.5222 24.0629C20.4987 24.0629 21.0869 24.6567 21.1133 25.637C21.1133 25.9519 21.1133 26.2648 21.1133 26.5796C21.0925 27.1961 20.789 27.592 20.2687 27.6881Z" fill="#E1A827"/>
<path d="M8.10449 6.92439L8.10449 17.6511L6.19668 18.3317L6.19668 7.11857C6.7848 6.81364 7.467 6.74421 8.10449 6.92439Z" fill="#E1A827"/>
</svg>
