<?xml version="1.0" encoding="UTF-8"?>
<svg id="Layer_2" data-name="Layer 2" xmlns="http://www.w3.org/2000/svg" viewBox="0 0 679.49 182.98">
  <defs>
    <style>
      .cls-1 {
        fill: #fff;
      }

      .cls-2 {
        fill: #ee1d46;
      }
    </style>
  </defs>
  <g id="Layer_2-2" data-name="Layer 2">
    <path class="cls-2" d="M0,0v182.98h182.98V0H0ZM125.45,130.26l-33.01,33.01-34.3-34.3c-21.47-21.47-21.47-56.27,0-77.74l31.51-31.51,14.91,14.91-36.09,36.09c-10.27,10.27-10.27,26.91,0,37.18l26.54,26.54,22.07-22.07c8.56-8.57,8.56-22.45,0-31.02l-24.26,24.26-14.51-14.51,41.36-41.36,5.77,5.77c20.64,20.64,20.64,54.11,0,74.76h.01Z"/>
    <path class="cls-1" d="M234.28,149.38h5.05v10.23c-2.82,3.11-6.86,4.67-12.11,4.67-4.42,0-8.12-1.46-11.11-4.37-2.98-2.91-4.47-6.59-4.47-11.04s1.52-8.16,4.56-11.13,6.71-4.45,11.02-4.45,7.89,1.26,10.74,3.77l-2.7,3.85c-1.17-1-2.35-1.69-3.53-2.08s-2.56-.58-4.13-.58c-3.02,0-5.56.98-7.62,2.93-2.05,1.95-3.08,4.52-3.08,7.7s1,5.73,3,7.66,4.42,2.89,7.25,2.89,5.21-.61,7.13-1.84v-8.22h0Z"/>
    <path class="cls-1" d="M266.98,134.02v4.75h-15.96v7.92h14.34v4.49h-14.34v8h16.48v4.75h-21.53v-29.92h21.02-.01Z"/>
    <path class="cls-1" d="M285.25,138.64v25.29h-5.05v-25.29h-9.07v-4.62h23.2v4.62h-9.08Z"/>
    <path class="cls-1" d="M301.69,157.13l-3,6.81h-5.39l13.18-29.92h5.39l13.18,29.92h-5.39l-3-6.81h-14.98.01ZM314.61,152.46l-5.44-12.33-5.44,12.33h10.88Z"/>
    <path class="cls-1" d="M337.13,155.55l6.68-21.53h4.54l6.68,21.53,7.53-21.53h5.44l-10.44,29.92h-5.01l-6.29-20.5h-.34l-6.29,20.5h-5.01l-10.44-29.92h5.44l7.53,21.53h-.02,0Z"/>
    <path class="cls-1" d="M375.48,157.13l-3,6.81h-5.39l13.18-29.92h5.39l13.18,29.92h-5.39l-3-6.81h-14.98.01ZM388.4,152.46l-5.44-12.33-5.44,12.33h10.88Z"/>
    <path class="cls-1" d="M412.58,163.93h-5.14v-11.81l-11.13-18.1h5.52l8.17,13.61,8.17-13.61h5.52l-11.13,18.1v11.81h.02Z"/>
    <path class="cls-1" d="M209.41,67.33c0-19.7,15.34-38.75,46.41-38.75,13.74,0,25.34,3.81,32.67,9.91l-9.07,6.97c-4.53-6.42-12.67-10.99-23.6-10.99-21.6,0-29.6,16.65-29.6,32.87,0,22.53,13.2,32.87,28.67,32.87,6.93,0,14.14-2.18,20.4-6.2v-19.59h-26.8l1.73-6.64h39.34v27.97c-8.13,5.01-19.07,10.34-35.34,10.34-31.07,0-44.81-19.05-44.81-38.75h0Z"/>
    <path class="cls-1" d="M364.1,95.3l-1.6,10.12h-55.61c1.47-25.69,1.47-51.16,0-76.19h53.34l1.2,9.58c-11.73-2.18-24.54-2.83-38.27-2.83-.4,6.64-.53,16.11-.67,26.01h29.07l-1.6,6.64h-27.34c0,11.43.27,22.64.53,30.04,14.4,0,29.34-.44,40.94-3.37h0Z"/>
    <path class="cls-1" d="M378.64,36.52l-5.87-7.29h21.47l46.01,58.23c.53-19.05.13-38.86-1.07-58.23h12.4c-1.07,25.14-1.2,50.61,0,76.19h-14.27c-14.67-19.48-30.54-39.95-47.07-58.34-.4,18.61.27,39.51,1.2,58.34h-13.2c1.47-22.75,1.6-45.72.4-68.9h0Z"/>
    <path class="cls-1" d="M526.13,95.3l-1.6,10.12h-55.61c1.47-25.69,1.47-51.16,0-76.19h53.34l1.2,9.58c-11.73-2.18-24.54-2.83-38.27-2.83-.4,6.64-.53,16.11-.67,26.01h29.07l-1.6,6.64h-27.34c0,11.43.27,22.64.53,30.04,14.4,0,29.34-.44,40.94-3.37h0Z"/>
    <path class="cls-1" d="M531.47,29.23h17.6c8.13,18.4,15.87,38.64,24.67,57.36h.4c8.13-18.94,17.74-42.12,22-57.36h16.14c-10.27,15.13-27.87,55.51-34.81,76.19h-12.54c-7.07-18.94-23.07-56.6-33.47-76.19h.01Z"/>
    <path class="cls-1" d="M679.49,95.3l-1.6,10.12h-55.61c1.47-25.69,1.47-51.16,0-76.19h53.34l1.2,9.58c-11.73-2.18-24.54-2.83-38.27-2.83-.4,6.64-.53,16.11-.67,26.01h29.07l-1.6,6.64h-27.34c0,11.43.27,22.64.53,30.04,14.4,0,29.34-.44,40.94-3.37h0Z"/>
  </g>
</svg>