<svg width="67" height="105" viewBox="0 0 67 105" fill="none" xmlns="http://www.w3.org/2000/svg">
<g clip-path="url(#clip0_75_204360)">
<path d="M12.7328 1.88639C14.5636 5.03051 15.5062 8.61835 15.4585 12.2623C15.4585 13.4484 15.4585 14.7069 14.4015 15.6395C14.2052 15.8416 14.07 16.0958 14.0119 16.3724C13.9538 16.649 13.975 16.9365 14.0732 17.2013C14.2103 17.7757 14.5414 18.2844 15.0098 18.6403C15.4783 18.9962 16.055 19.1772 16.6415 19.1525C17.2588 19.1696 17.8597 18.9515 18.3242 18.5419C18.7886 18.1324 19.0824 17.5614 19.1468 16.9433C19.2149 15.9126 19.1727 14.8775 19.0208 13.8559C18.7779 12.0451 18.4001 10.2342 18.1213 8.42342C17.6445 5.10964 19.6505 2.53828 22.9609 2.28024C24.2646 2.13272 25.5788 2.10393 26.8876 2.19423C27.8476 2.28569 28.7914 2.5049 29.6942 2.84612C30.6821 3.24839 31.6099 3.78616 32.4514 4.44416C33.1735 4.97696 33.8519 5.56738 34.4799 6.2097C36.4455 8.35552 36.8278 11.4475 36.9223 12.6969C37.9687 12.4197 39.04 12.2484 40.1203 12.1854C40.5386 12.1582 40.9434 12.1492 41.3302 12.1582C41.3302 12.0134 41.3302 11.8006 41.3302 11.5425C41.1503 7.41842 37.9523 4.52565 37.1292 3.78322C34.9505 1.86755 32.2661 0.629841 29.4019 0.220441C28.1186 0.0159352 26.8175 -0.0508357 25.5202 0.0212513C23.838 0.0574675 18.697 0.0393594 11.6309 0.0212513C11.6533 0.202333 11.6309 0.424157 11.7073 0.555441C12.0267 1.01267 12.445 1.41105 12.7328 1.88639Z" fill="#E1A827"/>
<path d="M47.3128 10.4878C47.7235 10.4316 48.1416 10.4944 48.5182 10.6688C49.3233 11.1215 49.5212 12.6336 48.968 13.625C48.4912 14.5032 47.7851 14.7115 46.7191 14.2226C45.0186 13.422 43.1674 12.9975 41.2902 12.9776C36.7023 12.9776 32.6228 14.2543 29.3663 17.6812C23.762 23.5664 25.4532 31.9233 31.0575 35.6264C31.3139 35.7984 31.5388 36.0112 31.8582 36.2647C31.4803 36.5227 31.197 36.6812 30.9586 36.8849C28.9705 38.5508 27.5807 41.2716 30.6213 44.1281C30.7922 44.2911 30.9721 44.445 31.1565 44.5808C32.4673 45.5737 33.9242 46.3542 35.4744 46.8942C35.7938 47.0119 36.1041 47.1703 36.5629 47.3786C33.2734 47.8646 30.1876 49.2771 27.6617 51.4529C26.1316 52.7929 24.8507 54.3963 23.879 56.1882H24.4952C25.7666 56.1882 27.0335 56.1882 28.2959 56.1882L28.4668 55.8803C29.1917 54.6332 30.1018 53.505 31.1655 52.5348C33.302 50.5837 35.9512 49.4021 38.9693 48.7774C39.3725 48.6617 39.7954 48.6324 40.2107 48.6914C42.734 49.2844 45.1583 50.131 47.2048 51.8105C48.74 53.0065 49.7878 54.726 50.1509 56.6454C50.8886 60.7469 49.3503 65.8851 44.9649 68.6149C41.9447 70.5034 38.3035 71.1091 34.8402 70.2989C29.7262 69.2396 27.0365 65.6497 27.2838 60.7921C27.2794 60.4377 27.2524 60.0838 27.2029 59.7328H22.795C22.732 60.2444 22.6466 60.7016 22.6286 61.1588C22.4172 66.4011 25.4397 70.6158 30.5943 72.0916C35.5386 73.5633 40.8406 73.2281 45.5631 71.1455C49.5459 69.4945 52.8081 66.4602 54.7567 62.5939C55.786 60.6266 56.3175 58.4342 56.304 56.2108C56.3317 54.7957 56.0253 53.3943 55.4099 52.1217C54.7945 50.849 53.8877 49.7417 52.7642 48.8906C50.698 47.3362 48.3973 46.1257 45.9499 45.3052C43.4896 44.3998 40.9753 43.6573 38.5285 42.7112C37.0135 42.0997 35.5448 41.378 34.1341 40.5518C33.1985 40.0176 33.0276 39.3159 33.3604 38.5373C33.7697 37.5775 34.4264 37.2471 35.4789 37.4553C35.7308 37.5051 35.9917 37.5232 36.3155 37.5685V34.3995C36.1221 34.2275 35.9827 34.1053 35.8657 33.974C32.2 30.5154 30.5448 26.278 31.3184 21.2576C31.5266 19.8047 32.1573 18.4463 33.1311 17.3534C34.1048 16.2606 35.3781 15.4822 36.7905 15.1163C38.203 14.7503 39.6914 14.8132 41.0684 15.2971C42.4454 15.7809 43.6493 16.664 44.5286 17.8351C46.8602 20.7111 48.0408 24.3598 47.839 28.0662C47.7086 31.5113 46.2648 34.2456 42.8014 35.4996C42.6402 35.5862 42.4893 35.691 42.3516 35.812C42.3516 36.1877 42.4011 36.6223 42.4371 37.1701C44.4952 36.6719 46.4124 35.7055 48.0414 34.3452C51.4823 31.4479 53.2994 27.7856 52.9306 23.1906C52.771 21.4949 52.2146 19.8613 51.3069 18.4236C50.8412 17.7159 50.5902 16.887 50.5846 16.0381C50.5791 15.1892 50.8191 14.357 51.2754 13.6431C51.5719 13.1629 51.7963 12.6412 51.9411 12.0949C52.4628 9.86303 52.2559 7.77607 50.4703 6.11465C49.895 5.58832 49.1768 5.24682 48.4075 5.13391C47.6382 5.02099 46.853 5.1418 46.1523 5.48086C45.5574 5.77273 45.0792 6.2603 44.797 6.8629C44.5149 7.4655 44.4456 8.14701 44.6006 8.79465C44.9064 9.9581 45.833 10.6326 47.3128 10.4878Z" fill="#E1A827"/>
<path d="M37.5568 94.1596C36.3816 93.072 35.0484 92.1713 33.6031 91.4886L31.876 90.7281C31.876 89.1708 31.822 87.5592 31.876 85.9113C31.921 84.9742 32.4922 84.5532 33.4502 84.4219C34.2198 84.3232 35.0008 84.4691 35.6839 84.8393C36.3671 85.2094 36.9181 85.7853 37.2599 86.4863C38.065 88.1069 37.9166 89.9359 36.8371 91.0948C36.4373 91.4855 36.0169 91.8542 35.5777 92.1994C36.3358 91.9914 37.0758 91.7219 37.7906 91.3936C38.4873 91.0349 39.0432 90.4498 39.3682 89.7333C39.6931 89.0168 39.768 88.2108 39.5808 87.446C39.4604 86.6004 39.0989 85.8082 38.5401 85.1653C37.9812 84.5225 37.249 84.0567 36.4323 83.8244C35.4452 83.5647 34.4189 83.491 33.4052 83.6071C32.3662 83.6659 32.2718 83.7791 31.3272 83.7701C30.0858 83.7701 29.6495 83.7338 29.6495 83.7338C29.5326 83.7338 28.2327 83.6569 28.1428 83.9104C28.1323 83.9718 28.1323 84.0346 28.1428 84.096C28.1482 84.1636 28.1698 84.2288 28.2057 84.2861C28.588 84.4265 28.7815 84.517 28.9884 84.5713C29.2676 84.6286 29.5179 84.7829 29.6955 85.0072C29.8731 85.2314 29.9667 85.5114 29.9599 85.7982C29.9599 86.4772 30.0094 88.0888 29.9599 90.2301C28.3558 89.7835 26.6613 89.7835 25.0572 90.2301C24.2161 87.1563 23.5549 84.9109 23.357 84.4491C23.2985 84.3014 23.2023 84.1718 23.0782 84.0734C22.8434 83.9356 22.5678 83.8859 22.3 83.933C21.351 83.9692 20.9507 83.9828 20.6988 83.9828C20.3976 83.9807 20.097 83.9565 19.7992 83.9104C19.9207 83.9557 20.8562 84.3223 21.0362 85.0829C21.0901 85.5395 21.0472 86.0024 20.9102 86.441L20.8697 86.5768C19.3405 91.8146 17.8022 97.0478 16.3224 102.308C15.9761 103.531 15.4498 104.477 14.0735 104.689C14.051 104.689 14.0735 104.839 14.042 104.938H18.5398C18.5567 104.902 18.5654 104.863 18.5654 104.823C18.5654 104.783 18.5567 104.744 18.5398 104.708C18.4184 104.513 17.9146 104.766 17.5278 104.522C17.4152 104.447 17.325 104.342 17.267 104.219C17.4244 103.608 17.5773 102.996 17.7167 102.381L18.3374 100.045C18.5039 100.362 18.6478 100.656 18.7872 100.95C19.1916 101.731 19.865 102.337 20.6813 102.655C21.4976 102.972 22.4009 102.979 23.2221 102.675C24.7919 102.168 25.5565 100.375 24.7694 99.0533C24.526 98.6445 24.1365 98.345 23.6806 98.2162C23.2248 98.0874 22.7372 98.1391 22.318 98.3607C21.5264 98.7862 21.315 99.5422 21.7198 100.534C21.8053 100.737 21.8997 100.937 21.9987 101.163C21.8794 101.269 21.7394 101.349 21.5878 101.397C21.4362 101.446 21.2762 101.462 21.118 101.445C20.9598 101.428 20.8068 101.378 20.6688 101.298C20.5309 101.219 20.4109 101.111 20.3165 100.982C19.9534 100.558 19.6685 100.072 19.4754 99.5468C18.5219 96.8622 20.0736 93.1546 23.6629 92.0953L26.9868 103.481C27.0396 103.678 27.0172 103.887 26.9239 104.068C26.8307 104.249 26.6734 104.389 26.4831 104.459C26.3571 104.508 26.1862 104.513 26.1502 104.622C26.1142 104.73 26.2312 104.857 26.3346 104.957C27.1217 104.957 28.3002 104.957 29.735 104.957C34.1879 105.02 34.3138 104.988 35.2629 104.957C36.1872 104.946 37.093 104.694 37.8915 104.226C38.69 103.757 39.3538 103.087 39.8177 102.282C40.2817 101.478 40.5299 100.565 40.538 99.6351C40.5461 98.7048 40.3139 97.7882 39.8642 96.9754C39.2565 95.9138 38.4766 94.9621 37.5568 94.1596ZM21.8143 91.5747C21.2501 91.9637 20.7231 92.4047 20.24 92.892C20.8038 90.9394 21.3645 88.9867 21.9222 87.034H22.2191C22.5744 88.2699 22.9342 89.5058 23.2896 90.7417C22.7785 90.982 22.2867 91.2621 21.8188 91.5792L21.8143 91.5747ZM29.9599 97.0071C29.8789 101.48 29.8384 103.716 29.8699 103.838C29.9014 103.961 29.9554 104.178 29.816 104.327C29.7696 104.374 29.7097 104.404 29.645 104.413C29.5328 104.416 29.4211 104.396 29.3167 104.354C28.8669 104.164 28.705 103.562 28.642 103.309C28.3632 102.195 27.9583 101.113 27.7424 99.9904C27.5445 99.0443 27.3736 98.3697 27.1352 97.4326C26.9238 96.6178 26.6855 95.8391 26.2357 94.3045C25.9028 93.1365 25.6195 92.1768 25.4216 91.5294C26.1667 91.3425 26.9348 91.2647 27.702 91.2985C28.4543 91.3279 29.1991 91.462 29.9149 91.6969C29.9149 92.0364 29.9689 92.3126 29.9689 92.6023C29.9824 94.4946 29.9914 95.4498 29.9644 97.0297L29.9599 97.0071ZM38.056 101.118C37.734 102.136 37.0532 103 36.1419 103.548C35.2305 104.096 34.1516 104.289 33.1084 104.092C32.2538 103.924 31.8535 103.612 31.849 102.833C31.8175 99.4155 31.849 95.993 31.849 92.3443C34.4802 93.4217 36.6077 94.6802 37.7637 97.152C38.3864 98.388 38.4979 99.8218 38.074 101.14L38.056 101.118Z" fill="#E1A827"/>
<path d="M8.04207 65.6399C8.64274 65.7841 9.27559 65.6876 9.80689 65.3708C10.3382 65.054 10.7263 64.5417 10.8892 63.9422C11.6449 61.8145 13.1831 60.5696 15.1847 59.7819C16.7711 59.2114 18.448 58.9382 20.1323 58.9761C22.7051 58.9489 25.2778 59.0077 27.8506 58.9761C31.6873 58.9082 35.2541 57.9756 38.1957 55.3544C39.8335 53.9099 40.9422 51.9539 41.3442 49.7998C39.545 48.9804 38.0248 49.7454 36.5 50.2208C34.4445 54.9198 30.8732 57.0385 25.8311 56.9344C20.5011 56.8348 15.1667 56.9027 9.83222 56.9344C7.50233 56.9344 6.099 58.3604 6.04053 60.7144C6.04053 61.4705 6.04053 62.2219 6.04053 62.978C6.07651 64.4583 6.80066 65.409 8.04207 65.6399Z" fill="#E1A827"/>
<path d="M66.9598 104.663C66.7889 104.35 65.3676 104.21 64.4365 102.712C64.0097 102.093 63.6451 101.433 63.348 100.742C62.6464 98.859 62.0257 96.9441 61.3285 94.916L60.4784 94.5266C61.1171 94.255 61.5534 94.0966 61.9672 93.8838C63.0959 93.2874 63.9934 92.3273 64.516 91.157C65.0387 89.9867 65.1564 88.6738 64.8503 87.4283C64.2161 84.7845 62.354 83.3539 59.5204 83.4037C58.9596 83.3696 58.3969 83.4215 57.8517 83.5576C56.3404 84.0647 54.7796 83.8881 53.2504 83.9017C53.2143 83.9101 53.1814 83.929 53.1559 83.956C53.1444 83.9743 53.1353 83.9941 53.1289 84.0149C53.1064 84.0886 53.1064 84.1675 53.1289 84.2412C53.1371 84.2766 53.1541 84.3094 53.1784 84.3363C53.2033 84.3565 53.2326 84.3704 53.2639 84.377C53.5143 84.3466 53.7683 84.3714 54.0082 84.4495C54.2482 84.5277 54.4685 84.6574 54.6537 84.8297C54.902 85.1785 55.0126 85.6077 54.964 86.0339C55.0405 89.5379 54.964 91.2898 54.964 92.1047V92.8879C53.1064 92.3763 52.0629 91.9824 50.6461 91.5297C47.1513 90.4161 45.55 90.2124 44.4076 90.3572C44.4076 88.0666 44.4436 86.3599 44.4975 85.717C44.5114 85.5265 44.5733 85.3426 44.6775 85.1828C44.8119 85.0146 44.9837 84.8802 45.1789 84.7906C45.3741 84.701 45.5875 84.6586 45.8019 84.6668C46.8756 84.5964 47.9526 84.5919 49.0269 84.6532C50.3313 84.7664 50.934 85.5269 50.871 86.8397C50.8404 87.3575 50.7621 87.8712 50.6371 88.3744C50.5511 88.5685 50.5333 88.7862 50.5864 88.9918C50.6395 89.1975 50.7605 89.3788 50.9295 89.5062C51.2983 89.7642 51.5952 89.6737 52.2788 89.0942C51.3793 87.3966 51.982 85.9253 52.913 84.5038C52.9635 84.4411 52.9951 84.365 53.0038 84.2848C53.0126 84.2045 52.9983 84.1234 52.9625 84.0511C52.9207 83.9805 52.8577 83.925 52.7826 83.8926C49.0629 83.9787 45.3386 83.8564 41.6144 83.8383C41.3895 83.8383 40.9262 83.8157 40.9397 84.0556C40.9532 84.2955 40.9128 84.5355 41.0972 84.703C41.385 84.9655 41.7629 84.703 42.1092 84.9655C42.2754 85.1059 42.3857 85.3021 42.4195 85.5178C42.595 86.1788 42.6219 89.0263 42.496 92.8833C43.5981 92.4796 44.7706 92.3071 45.9414 92.3763C47.3129 92.4852 48.6695 92.737 49.9894 93.1278C52.9265 93.8612 53.3583 94.0332 54.7436 94.255H54.7796C55.3733 94.3727 55.8906 94.4406 56.2999 94.495C57.1944 94.6136 58.0965 94.665 58.9986 94.6489C59.6238 96.3556 60.1141 98.0351 60.8472 99.5969C61.5354 101.068 62.4215 102.444 63.2491 103.857C63.375 104.074 63.2041 104.242 62.9972 104.382C62.8848 104.454 62.6104 104.545 62.6059 104.681C62.6059 104.735 62.6509 104.767 62.6554 104.789C62.6959 104.989 64.9987 104.921 64.9987 104.921C66.7664 104.916 67.1352 104.989 66.9598 104.663ZM56.9206 88.4921C57.9326 88.5781 59.0976 89.0354 59.5608 87.555C59.5159 87.5143 59.4574 87.4283 59.3989 87.4237C58.207 87.3875 57.5998 86.8624 57.7077 85.9343C57.7385 85.7004 57.8154 85.4751 57.9339 85.2715C58.0525 85.068 58.2103 84.8903 58.398 84.749C58.5857 84.6077 58.7997 84.5056 59.0272 84.4488C59.2547 84.3919 59.4912 84.3813 59.7228 84.4178C60.5137 84.5584 61.2233 84.9931 61.7108 85.6355C62.3433 86.4875 62.7046 87.5122 62.7471 88.5749C62.7897 89.6375 62.5115 90.6882 61.9492 91.5886C60.8832 93.155 59.0076 93.7072 56.9206 93.0237V88.4921Z" fill="#E1A827"/>
<path d="M37.0708 15.7704V41.5292L41.6226 43.1634V16.2366C40.2196 15.504 38.5918 15.3372 37.0708 15.7704Z" fill="#E1A827"/>
<path d="M14.6443 94.953C14.6758 94.7176 14.5228 94.609 14.4329 94.609C12.8901 94.609 11.3474 94.5773 9.8091 94.609C9.52791 94.6398 9.25729 94.7342 9.01748 94.8851C8.72152 95.0335 8.48208 95.2754 8.33584 95.5739C8.1896 95.8723 8.14465 96.2108 8.20786 96.5375C8.28882 97.0988 8.74761 97.5696 9.22438 97.4972C9.46046 97.4893 9.68473 97.3914 9.85176 97.2233C10.0188 97.0552 10.1161 96.8294 10.1239 96.5918C10.1239 96.3292 10.1239 96.0621 10.1239 95.8041C11.0775 95.6592 11.2979 95.7362 11.3069 96.4424C11.389 98.0401 11.3424 99.6419 11.1674 101.232C10.7491 103.885 8.43276 104.908 6.09387 103.595C5.57111 103.283 5.0955 102.898 4.68155 102.45C3.7952 101.455 3.18408 100.244 2.90939 98.9368C2.26031 96.3373 2.17441 93.6277 2.65751 90.9919C3.02634 88.9864 3.737 87.1213 5.4012 85.8446C6.75056 84.7989 8.28882 84.2828 10.0025 84.8125C11.1045 85.1565 11.4643 85.8356 11.2664 86.9719C11.2079 87.3159 11.154 87.6554 11.0955 88.0493C11.0853 88.1096 11.0903 88.1714 11.11 88.2293C11.1296 88.2871 11.1633 88.3391 11.208 88.3805C11.2527 88.4218 11.307 88.4513 11.3659 88.4662C11.4248 88.4811 11.4864 88.481 11.5453 88.4658C11.6138 88.4543 11.6769 88.421 11.7252 88.3707C12.5168 87.3476 12.7642 85.9578 13.8392 85.1112C13.8797 85.0796 14.109 84.7627 13.8122 84.5906C12.8182 84.0112 11.9366 84.7989 11.1135 84.3417C10.777 84.1791 10.4173 84.0707 10.0475 84.0202C6.64261 83.4181 2.24821 85.0705 0.826888 89.2988C-0.394426 92.8022 -0.256273 96.6406 1.2137 100.046C1.6774 101.186 2.39763 102.203 3.31779 103.016C4.23795 103.829 5.33294 104.416 6.51667 104.731C7.16075 104.956 7.84744 105.028 8.52364 104.942C9.19983 104.857 9.84742 104.616 10.4163 104.238C10.6141 104.116 10.8235 104.014 11.0415 103.935C11.8376 104.061 11.9096 105.293 13.0071 104.799V103.486C13.0071 101.273 13.0071 99.059 13.0071 96.8453C13.0071 95.6773 13.0745 95.6457 14.2035 95.3197C14.3924 95.2654 14.6128 95.2111 14.6443 94.953Z" fill="#E1A827"/>
<path d="M56.8566 102.31C56.8566 101.884 56.8566 101.459 56.8566 101.033C56.8566 99.0186 56.8566 97.0494 56.8566 94.9896C56.5643 94.967 56.2629 94.9353 55.9571 94.89C55.6512 94.8447 55.3004 94.7904 54.999 94.7315C54.999 94.967 54.999 95.4287 54.999 96.0127C55.02 98.1796 55.02 100.348 54.999 102.518C54.999 104.166 54.7517 104.379 52.903 104.537C52.1519 102.491 51.4772 100.427 52.2464 98.1766C52.4488 97.5972 52.2463 97.2033 51.7606 97.0766C51.6279 97.0273 51.486 97.0082 51.3451 97.0207C51.2041 97.0332 51.0677 97.0769 50.9456 97.1488C50.8235 97.2206 50.7187 97.3188 50.6387 97.4362C50.5588 97.5537 50.5057 97.6875 50.4832 97.828C50.4907 98.1565 50.5268 98.4837 50.5911 98.8059C50.7377 100.017 50.8173 101.235 50.8295 102.455C50.789 103.618 50.3123 104.048 49.1833 104.189C48.3009 104.289 47.413 104.333 46.5251 104.32C44.8294 104.32 44.4516 103.903 44.4471 102.233C44.4471 99.6887 44.4471 97.1445 44.4471 94.5957V93.043L42.549 93.464C42.549 96.393 42.549 99.1228 42.549 101.853C42.549 103.881 42.549 103.881 40.7993 104.985C45.4951 104.985 49.9704 104.985 54.4458 104.985C55.7502 104.985 57.0591 104.94 58.3679 104.908C58.3871 104.903 58.4047 104.893 58.4195 104.88C58.4343 104.866 58.4459 104.85 58.4534 104.831C58.4624 104.785 58.4624 104.737 58.4534 104.691C56.9331 104.093 56.8656 103.994 56.8566 102.31Z" fill="#E1A827"/>
</g>
<defs>
<clipPath id="clip0_75_204360">
<rect width="67" height="105" fill="white"/>
</clipPath>
</defs>
</svg>
